<svg width="135" height="65" viewBox="0 0 135 65" fill="none" xmlns="http://www.w3.org/2000/svg">
<g clip-path="url(#clip0)">
<path d="M6.30859 0.473976H7.11106L8.35124 4.30394C8.46067 4.70518 8.64305 5.21584 8.78895 5.7265H8.82543C8.97133 5.17936 9.11724 4.77813 9.29962 4.30394L10.248 1.53178L9.88323 0.4375H10.6492L11.9259 4.30394C12.0718 4.70518 12.2542 5.21584 12.3636 5.69003H12.4001C12.5095 5.17936 12.6554 4.74165 12.8013 4.30394L14.005 0.4375H14.771L12.6554 6.85725H12.0718L11.014 3.86623C10.8316 3.35557 10.7222 2.95434 10.5763 2.48015H10.5398C10.3939 2.95434 10.2845 3.28262 10.1021 3.86623L9.04428 6.85725H8.46067L6.30859 0.473976Z" fill="white"/>
<path d="M15.4639 4.66918C15.4639 5.61755 16.011 6.34707 16.9959 6.34707C17.4336 6.34707 17.7984 6.20117 18.1266 6.05526L18.3455 6.56592C17.9443 6.82126 17.3971 6.96716 16.8865 6.96716C15.4274 6.96716 14.7344 5.87288 14.7344 4.52328C14.7344 3.13719 15.5004 2.15234 16.6311 2.15234C17.7983 2.15234 18.4549 3.06424 18.4549 4.52328V4.70565L15.4639 4.66918ZM17.6889 4.12204C17.6524 3.429 17.3242 2.73596 16.6311 2.73596C15.9381 2.73596 15.5004 3.35605 15.4639 4.12204H17.6889Z" fill="white"/>
<path d="M21.375 2.44415C21.8492 2.26177 22.3963 2.15234 22.8705 2.15234C24.3295 2.15234 25.205 3.02776 25.205 4.52328C25.205 6.01879 24.2201 6.93068 22.907 6.93068C22.6152 6.93068 22.3234 6.85773 22.1045 6.7483V9.11924H21.375V2.44415ZM22.8705 6.34707C23.8918 6.34707 24.4755 5.61755 24.4755 4.52328C24.4755 3.31957 23.7824 2.77243 22.8705 2.77243C22.5787 2.77243 22.3598 2.80891 22.1045 2.88186V6.12821C22.3598 6.27412 22.5787 6.34707 22.8705 6.34707Z" fill="white"/>
<path d="M26.1146 2.26177H26.6982L26.7712 2.84539C27.2818 2.29825 27.6466 2.15234 28.0478 2.15234C28.2302 2.15234 28.4126 2.18882 28.5585 2.26177L28.3032 2.91834C28.1937 2.84539 28.0843 2.80891 27.9019 2.80891C27.5736 2.80891 27.2454 3.02776 26.8076 3.46548V6.82126H26.0781V2.26177H26.1146Z" fill="white"/>
<path d="M29.4717 4.66918C29.4717 5.61755 30.0188 6.34707 31.0037 6.34707C31.4414 6.34707 31.8062 6.20117 32.1344 6.05526L32.3533 6.56592C31.9521 6.82126 31.4049 6.96716 30.8943 6.96716C29.4352 6.96716 28.7422 5.87288 28.7422 4.52328C28.7422 3.13719 29.5082 2.15234 30.6389 2.15234C31.8062 2.15234 32.4627 3.06424 32.4627 4.52328V4.70565L29.4717 4.66918ZM31.6967 4.12204C31.6603 3.429 31.332 2.73596 30.6389 2.73596C29.9459 2.73596 29.5082 3.35605 29.4717 4.12204H31.6967Z" fill="white"/>
<path d="M33.3359 2.44415C33.8101 2.26177 34.3573 2.15234 34.8314 2.15234C36.2905 2.15234 37.1659 3.02776 37.1659 4.52328C37.1659 6.01879 36.1811 6.93068 34.8679 6.93068C34.5761 6.93068 34.2843 6.85773 34.0655 6.7483V9.11924H33.3359V2.44415ZM34.8314 6.34707C35.8528 6.34707 36.4364 5.61755 36.4364 4.52328C36.4364 3.31957 35.7433 2.77243 34.8314 2.77243C34.5396 2.77243 34.3208 2.80891 34.0655 2.88186V6.12821C34.2843 6.27412 34.5396 6.34707 34.8314 6.34707Z" fill="white"/>
<path d="M40.6342 6.34839C40.2694 6.67667 39.8317 6.96848 39.2481 6.96848C38.4092 6.96848 37.7891 6.42134 37.7891 5.54592C37.7891 4.92583 38.0809 4.5246 38.5551 4.30574C38.8469 4.15984 39.2481 4.08688 39.6858 4.08688L40.5612 4.05041V3.7586C40.5612 3.06556 40.16 2.73728 39.5764 2.73728C39.0292 2.73728 38.628 2.91966 38.2997 3.10204L38.0444 2.59137C38.5915 2.26309 39.1387 2.11719 39.6493 2.11719C40.5977 2.11719 41.2907 2.59137 41.2907 3.68565V5.25411C41.2907 6.16601 41.3272 6.56724 41.3637 6.82258H40.7436L40.6342 6.34839ZM39.7588 4.59755C39.3575 4.59755 39.1022 4.6705 38.8833 4.77993C38.628 4.92583 38.4821 5.18116 38.4821 5.47297C38.4821 5.98363 38.8104 6.31191 39.3211 6.31191C39.9047 6.31191 40.3059 5.94715 40.5248 5.7283V4.56107L39.7588 4.59755Z" fill="white"/>
<path d="M42.3841 2.26177H42.9677L43.0407 2.84539C43.5514 2.29825 43.9161 2.15234 44.3174 2.15234C44.4997 2.15234 44.6821 2.18882 44.828 2.26177L44.5727 2.91834C44.4633 2.84539 44.3538 2.80891 44.1715 2.80891C43.8432 2.80891 43.5149 3.02776 43.0772 3.46548V6.82126H42.3477V2.26177H42.3841Z" fill="white"/>
<path d="M45.7373 4.66918C45.7373 5.61755 46.2845 6.34707 47.2693 6.34707C47.707 6.34707 48.0718 6.20117 48.4001 6.05526L48.6189 6.56592C48.2177 6.82126 47.6705 6.96716 47.1599 6.96716C45.7009 6.96716 45.0078 5.87288 45.0078 4.52328C45.0078 3.13719 45.7738 2.15234 46.9046 2.15234C48.0718 2.15234 48.7283 3.06424 48.7283 4.52328V4.70565L45.7373 4.66918ZM47.9624 4.12204C47.9259 3.429 47.5976 2.73596 46.9046 2.73596C46.2115 2.73596 45.7738 3.35605 45.7373 4.12204H47.9624Z" fill="white"/>
<path d="M51.7217 2.84512H51.1016V2.2615H51.7217V1.45903C51.7217 0.328283 52.4147 0 53.0348 0C53.2536 0 53.5454 0.0364759 53.7278 0.145903L53.5819 0.729517C53.436 0.656566 53.2536 0.62009 53.0713 0.62009C52.5971 0.62009 52.4147 0.911897 52.4147 1.45903V2.29798H53.5819L53.3631 2.88159H52.4147V6.89394H51.7217V2.84512Z" fill="white"/>
<path d="M53.8008 4.55975C53.8008 3.21014 54.6397 2.15234 55.9164 2.15234C57.193 2.15234 58.032 3.21014 58.032 4.55975C58.032 5.90936 57.193 6.96716 55.9164 6.96716C54.6033 6.93068 53.8008 5.87288 53.8008 4.55975ZM57.266 4.55975C57.266 3.50195 56.7189 2.77243 55.9164 2.77243C55.0774 2.77243 54.5303 3.50195 54.5303 4.55975C54.5303 5.61755 55.0774 6.34707 55.9164 6.34707C56.7189 6.34707 57.266 5.58108 57.266 4.55975Z" fill="white"/>
<path d="M58.9076 2.26177H59.4912L59.5641 2.84539C60.0748 2.29825 60.4396 2.15234 60.8408 2.15234C61.0232 2.15234 61.2056 2.18882 61.3515 2.26177L61.0961 2.91834C60.9867 2.84539 60.8773 2.80891 60.6949 2.80891C60.3666 2.80891 60.0383 3.02776 59.6006 3.46548V6.82126H58.8711V2.26177H58.9076Z" fill="white"/>
<path d="M6.12891 54.1304H10.6519L10.2507 55.407H7.62442V57.5591H10.2507V58.8358H7.62442V61.0973H10.6519V62.3739H6.12891V54.1304Z" fill="white"/>
<path d="M11.5625 56.4667H12.8392L12.9851 57.1233C13.6051 56.6491 14.2617 56.3208 14.9912 56.3208C15.9396 56.3208 16.888 56.795 16.888 58.4729V62.3758H15.3925V58.9471C15.3925 58.2176 15.2466 57.6339 14.4806 57.6339C14.0064 57.6339 13.4592 57.8893 13.0215 58.254V62.3758H11.5625V56.4667Z" fill="white"/>
<path d="M20.172 64.0152C19.1871 64.0152 18.567 63.6505 18.567 63.0668C18.567 62.6656 18.8588 62.4468 19.0412 62.3009C19.8437 62.6291 21.6675 62.4468 21.6675 63.2857C21.6675 63.6869 21.0839 64.0152 20.172 64.0152ZM20.0625 59.3828C19.406 59.3828 19.0412 58.8721 19.0412 58.2885C19.0412 57.5955 19.4789 57.1942 20.0625 57.1942C20.7191 57.1942 21.1203 57.7049 21.1203 58.2885C21.1203 58.9815 20.6826 59.3828 20.0625 59.3828ZM23.2359 56.0635H22.1417H20.9744H20.938H20.0261C18.4211 56.0635 17.6187 57.1578 17.6187 58.2156C17.6187 59.018 17.9834 59.6746 18.6035 60.0394C18.1293 60.3676 17.9105 60.8053 17.9105 61.1336C17.9105 61.4619 18.0564 61.7172 18.3117 61.8631C17.6916 62.1185 17.2539 62.6291 17.2539 63.2857C17.2539 64.307 18.2752 65.0001 19.9896 65.0001C22.0322 65.0001 23.09 64.1246 23.09 63.0668C23.09 60.8783 19.2236 61.8631 19.2236 60.8053C19.2236 60.6959 19.2601 60.55 19.3695 60.3676C19.5519 60.4406 19.8072 60.4771 20.099 60.4771C21.5216 60.4771 22.5429 59.6016 22.5429 58.2885C22.5429 57.8143 22.397 57.3766 22.1417 57.0483H22.3241C22.7982 57.0118 22.9441 56.72 23.0536 56.6106L23.3089 56.1V56.0635H23.2359Z" fill="white"/>
<path d="M26.957 54.6033C26.957 54.0926 27.3583 53.6914 27.8689 53.6914C28.3796 53.6914 28.7808 54.0926 28.7808 54.6033C28.7808 55.0775 28.3796 55.4787 27.8689 55.4787C27.3583 55.5152 26.957 55.114 26.957 54.6033ZM27.1394 56.4636H28.6349V62.3362H27.1394V56.4636Z" fill="white"/>
<path d="M29.8023 60.8043C30.24 61.0961 30.8236 61.2784 31.4072 61.2784C31.9909 61.2784 32.4286 61.0961 32.4286 60.6584C32.4286 59.6735 29.6564 60.0383 29.6564 58.0686C29.6564 57.0108 30.4954 56.2812 31.8814 56.2812C32.538 56.2812 33.1216 56.3907 33.5958 56.5731V57.8132C33.0851 57.5944 32.538 57.4485 31.9179 57.4485C31.4072 57.4485 31.079 57.5944 31.079 57.9956C31.079 58.944 33.8511 58.5792 33.8511 60.6219C33.8511 61.8985 32.7204 62.4457 31.4802 62.4457C30.5683 62.4457 29.8023 62.1539 29.3281 61.8621L29.8023 60.8043Z" fill="white"/>
<path d="M34.543 53.5469H36.0385V57.1215C36.5856 56.6838 37.2422 56.319 38.0082 56.319C38.9565 56.319 39.8684 56.7932 39.8684 58.4711V62.374H38.3729V58.9453C38.3729 58.2158 38.227 57.6322 37.461 57.6322C36.9504 57.6322 36.4397 57.8875 36.002 58.2523V62.374H34.543V53.5469Z" fill="white"/>
<path d="M25.7535 61.1318C25.4982 61.1318 25.3158 61.0223 25.3158 60.5846V53.5083H23.8203V60.9859C23.8203 61.9342 24.331 62.4084 25.3158 62.4084C25.5712 62.4084 25.863 62.3719 26.1548 62.299L26.1183 61.0588C26.0089 61.1318 25.8265 61.1318 25.7535 61.1318Z" fill="white"/>
<path d="M43.4805 58.2538C43.4805 55.7734 45.1948 54.0591 47.6022 54.0591C50.0097 54.0591 51.724 55.7734 51.724 58.2538C51.724 60.5153 50.3015 62.0838 48.2953 62.3756C48.733 62.8862 49.2801 63.1051 49.9732 63.1051C50.3015 63.1051 50.6297 63.0321 50.7756 62.9592L51.1404 64.0899C50.7392 64.2723 50.265 64.3453 49.7908 64.3453C48.1859 64.3453 47.1645 63.3969 46.3985 62.2661C44.6477 61.8284 43.4805 60.3329 43.4805 58.2538ZM50.1556 58.2538C50.1556 56.43 49.1707 55.2993 47.6022 55.2993C46.0703 55.2993 45.0489 56.3935 45.0489 58.2538C45.0489 60.1141 46.0703 61.1719 47.6022 61.1719C49.0978 61.2083 50.1556 60.1141 50.1556 58.2538Z" fill="white"/>
<path d="M57.7408 59.0184V62.4836H57.7043H57.6678L56.9018 62.0823C56.7924 62.0094 56.6465 61.9364 56.5006 61.754L56.4641 61.6811H56.3547C55.917 62.0823 55.2969 62.4106 54.5309 62.4106C53.9473 62.4106 53.1448 62.1917 52.78 61.2434C52.6341 60.9151 52.5977 60.5503 52.5977 60.0032V56.3921H54.0932V59.8573C54.0932 60.1856 54.1296 60.4044 54.2026 60.5868C54.3485 60.9516 54.6403 61.134 55.078 61.134C55.5522 61.134 56.0264 60.9151 56.2817 60.6233V56.3921H57.7772V60.8057" fill="white"/>
<path d="M60.8058 61.318C60.2587 61.318 59.9304 61.0262 59.9304 60.5155C59.9304 60.2237 60.0399 59.9684 60.2952 59.859C60.4776 59.7495 60.7694 59.6766 61.1706 59.6766L61.9366 59.6401V60.8803V60.9168C61.7177 61.0627 61.3165 61.318 60.8058 61.318ZM61.0612 56.3208C60.2222 56.3208 59.4927 56.5032 58.7997 56.9044L59.2739 57.8528C59.7116 57.6339 60.2222 57.4516 60.8058 57.4516C61.4989 57.4516 61.9366 57.7434 61.9366 58.4364V58.6188L60.9153 58.6553C60.3317 58.6917 59.821 58.7647 59.3833 58.9835C58.7632 59.3118 58.3984 59.786 58.3984 60.5885C58.3984 61.7192 59.2374 62.4852 60.3681 62.4852C61.0976 62.4852 61.6448 62.1934 62.046 61.7922H62.1554C62.3014 61.9746 62.4473 62.0475 62.5567 62.1205L63.3227 62.5217H63.3592H63.3956V59.0565V58.4729C63.4321 57.0503 62.6296 56.3208 61.0612 56.3208Z" fill="white"/>
<path d="M84.8801 61.318C84.3329 61.318 84.0046 61.0262 84.0046 60.5155C84.0046 60.2237 84.1141 59.9684 84.3694 59.859C84.5518 59.7495 84.8436 59.6766 85.2448 59.6766L86.0108 59.6401V60.8803V60.9168C85.7555 61.0627 85.3907 61.318 84.8801 61.318ZM85.1354 56.3208C84.3329 56.3208 83.5669 56.5032 82.8739 56.9044L83.3481 57.8528C83.7858 57.6339 84.2964 57.4516 84.8801 57.4516C85.5731 57.4516 86.0108 57.7434 86.0108 58.4364V58.6188L84.9895 58.6553C84.4059 58.6917 83.8952 58.7647 83.4575 58.9835C82.8374 59.3118 82.4727 59.786 82.4727 60.5885C82.4727 61.7192 83.3116 62.4852 84.4423 62.4852C85.1719 62.4852 85.719 62.1934 86.1202 61.7922H86.2297C86.3756 61.9746 86.5215 62.0475 86.6309 62.1205L87.3969 62.5217H87.4334H87.4698V58.4729C87.5063 57.0503 86.7038 56.3208 85.1354 56.3208Z" fill="white"/>
<path d="M66.277 61.1357C66.0216 61.1357 65.8393 61.0262 65.8393 60.5885V53.5122H64.3438V60.9898C64.3438 61.9381 64.8544 62.4123 65.8393 62.4123C66.0946 62.4123 66.3499 62.3758 66.6417 62.3029V61.0627C66.5323 61.1357 66.3499 61.1357 66.277 61.1357Z" fill="white"/>
<path d="M67.4062 54.6048C67.4062 54.0941 67.8075 53.6929 68.3181 53.6929C68.8288 53.6929 69.23 54.0941 69.23 54.6048C69.23 55.079 68.8288 55.4802 68.3181 55.4802C67.771 55.5167 67.4062 55.1154 67.4062 54.6048ZM67.5522 56.465H69.0477V62.3377H67.5522V56.465Z" fill="white"/>
<path d="M70.8012 57.5936H69.9258V56.4264H70.8012V55.6239C70.8012 54.2378 71.6037 53.5083 72.8074 53.5083C73.2086 53.5083 73.6463 53.5813 74.0476 53.7636L73.7557 54.9309C73.5004 54.8579 73.2451 54.785 73.0262 54.785C72.5156 54.785 72.2967 55.0768 72.2967 55.5874V56.4264H73.8287L73.4639 57.5936H72.2967V62.3355H70.8012V57.5936ZM74.4853 54.6026C74.4853 54.0919 74.8865 53.6907 75.3972 53.6907C75.9078 53.6907 76.3091 54.0919 76.3091 54.6026C76.3091 55.0768 75.9078 55.478 75.3972 55.478C74.8865 55.5145 74.4853 55.1132 74.4853 54.6026ZM74.6676 56.4628H76.1632V62.3355H74.6676V56.4628Z" fill="white"/>
<path d="M88.9289 60.8785V57.5957H87.8711V56.4284H88.9289V55.0788L90.4244 54.6411V56.4284H92.2117L91.847 57.5957H90.4244V60.5137C90.4244 61.0609 90.6068 61.2432 91.008 61.2432C91.3728 61.2432 91.6646 61.0973 91.9199 60.9514L92.3576 61.9728C91.9199 62.2646 91.2269 62.4469 90.6433 62.4469C89.5855 62.4469 88.9289 61.8633 88.9289 60.8785Z" fill="white"/>
<path d="M93.0508 54.6048C93.0508 54.0941 93.452 53.6929 93.9627 53.6929C94.4733 53.6929 94.8746 54.0941 94.8746 54.6048C94.8746 55.079 94.4733 55.4802 93.9627 55.4802C93.452 55.5167 93.0508 55.1154 93.0508 54.6048ZM93.2332 56.465H94.7287V62.3377H93.2332V56.465Z" fill="white"/>
<path d="M95.5312 59.3848C95.5312 57.6339 96.6985 56.3208 98.4493 56.3208C100.2 56.3208 101.404 57.6339 101.404 59.3848C101.404 61.1356 100.2 62.4852 98.4493 62.4852C96.6985 62.4488 95.5312 61.1356 95.5312 59.3848ZM99.8719 59.3848C99.8719 58.2905 99.3977 57.5245 98.4493 57.5245C97.5009 57.5245 97.0268 58.327 97.0268 59.3848C97.0268 60.4791 97.5009 61.2815 98.4493 61.2815C99.3977 61.2815 99.8719 60.4791 99.8719 59.3848Z" fill="white"/>
<path d="M102.204 56.4667H103.481L103.627 57.1233C104.247 56.6491 104.904 56.3208 105.633 56.3208C106.582 56.3208 107.53 56.795 107.53 58.4729V62.3758H106.034V58.9471C106.034 58.2176 105.889 57.6339 105.123 57.6339C104.648 57.6339 104.101 57.8893 103.663 58.254V62.3758H102.168V56.4667H102.204Z" fill="white"/>
<path d="M108.771 60.8052C109.209 61.097 109.792 61.2794 110.376 61.2794C110.96 61.2794 111.397 61.097 111.397 60.6593C111.397 59.6745 108.625 60.0392 108.625 58.0695C108.625 57.0117 109.464 56.2822 110.85 56.2822C111.507 56.2822 112.09 56.3917 112.565 56.574V57.8142C112.054 57.5954 111.507 57.4495 110.887 57.4495C110.376 57.4495 110.048 57.5954 110.048 57.9966C110.048 58.945 112.82 58.5802 112.82 60.6229C112.82 61.8995 111.689 62.4466 110.449 62.4466C109.537 62.4466 108.771 62.1913 108.297 61.863L108.771 60.8052Z" fill="white"/>
<path d="M81.7066 60.8055L81.5972 60.8785C81.196 61.0973 80.7583 61.2797 80.2476 61.2797C79.2263 61.2797 78.5697 60.6231 78.5697 59.4194C78.5697 58.3252 79.2263 57.5227 80.3206 57.5227C80.9042 57.5227 81.3419 57.6686 81.7431 57.9969V56.7567C81.4148 56.5743 80.9042 56.3555 80.1747 56.3555C78.4238 56.3555 77.0742 57.6686 77.0742 59.4924C77.0742 61.2068 78.132 62.5199 80.0288 62.5199C80.8312 62.5199 81.5607 62.2646 82.0349 61.9363C82.0349 61.8998 81.8161 61.5715 81.7066 60.8055Z" fill="white"/>
<path d="M134.669 30.0198L112.637 14.1528H0V45.8868H112.637L134.669 30.0198Z" fill="#E84A34"/>
<path d="M14.6252 20.0269C9.37272 20.0269 5.98047 23.8203 5.98047 28.5622C5.98047 33.377 8.89854 36.8058 14.2605 36.8058C15.8654 36.8058 17.5433 36.5139 19.3306 35.5656C18.8929 34.909 18.6376 34.0701 18.6376 33.1217C17.4704 33.7783 16.2302 34.2524 14.6252 34.2524C11.2695 34.2524 9.19035 31.8815 9.19035 28.4528C9.19035 25.2429 11.0871 22.5072 14.7347 22.5072C16.3396 22.5072 17.6892 22.9084 18.9659 23.565V20.7928C17.9081 20.3916 16.4126 20.0269 14.6252 20.0269Z" fill="white"/>
<path d="M55.0053 18.8599H52.0508V35.8941C53.0356 36.4048 54.3852 36.6966 55.9172 36.6966C59.9296 36.6966 62.9571 34.3256 62.9571 30.1674C62.9571 26.4468 60.4402 24.3677 57.3033 24.3677C56.3914 24.3677 55.6984 24.5136 55.0053 24.7325V18.8599ZM56.3549 34.2162C55.9172 34.2162 55.443 34.1797 55.0053 34.0338V27.2128C55.3701 27.0669 55.9172 26.8481 56.7926 26.8481C58.7259 26.8481 59.8931 28.3071 59.8931 30.3498C59.8566 32.6477 58.507 34.2162 56.3549 34.2162Z" fill="white"/>
<path d="M89.6928 18.9692H86.7018V24.6595C86.2276 24.55 85.571 24.5136 85.0969 24.5136C81.3763 24.5136 78.6406 27.0669 78.6406 30.7874C78.6406 34.6539 81.4857 36.8059 85.3157 36.8059C86.7747 36.8059 88.4891 36.5141 89.6563 35.9305V18.9692H89.6928ZM85.3157 34.3621C83.1636 34.3621 81.7046 33.0489 81.7046 30.7509C81.7046 28.3435 83.2366 26.9575 85.2792 26.9575C85.8629 26.9575 86.2641 27.0304 86.7018 27.1398V34.1432C86.3006 34.3256 85.7169 34.3621 85.3157 34.3621Z" fill="white"/>
<path d="M108.223 24.5122C104.867 24.5122 102.934 27.1749 102.934 30.7131C102.934 33.8865 104.684 36.8411 108.952 36.8411C110.411 36.8411 111.87 36.5128 113.11 35.7468L112.198 33.7041C111.36 34.1783 110.411 34.5066 109.244 34.5066C107.274 34.5066 105.998 33.3394 105.925 31.5156H113.439V30.8225C113.439 26.8831 111.542 24.5122 108.223 24.5122ZM105.888 29.4365C105.925 28.0139 106.691 26.7737 108.186 26.7737C109.755 26.7737 110.411 28.0868 110.448 29.4365H105.888Z" fill="white"/>
<path d="M25.0195 24.5122C23.3781 24.5122 21.8461 24.9134 20.46 25.6794L21.4448 27.5762C22.2838 27.1385 23.3416 26.7737 24.5088 26.7737C25.8584 26.7737 26.7703 27.3573 26.7703 28.7434V29.1082L24.7641 29.1811C23.5604 29.2176 22.5391 29.4364 21.7366 29.8377C20.5329 30.4578 19.7305 31.4426 19.7305 33.0476C19.7305 35.3091 21.4084 36.8046 23.6334 36.8046C25.0924 36.8046 26.1502 36.221 27.0256 35.455H27.281C27.5728 35.7832 27.8646 35.9656 28.0834 36.0751L29.6519 36.841L29.7249 36.8775L29.7613 36.841V28.7799C29.7249 25.9348 28.1929 24.5122 25.0195 24.5122ZM24.5088 34.4701C23.451 34.4701 22.758 33.8865 22.758 32.8652C22.758 32.2816 22.9768 31.8074 23.4875 31.5156C23.8887 31.2967 24.4359 31.1508 25.2019 31.1508L26.7338 31.1143V33.5947V33.7041C26.2961 33.9959 25.5301 34.4701 24.5088 34.4701Z" fill="white"/>
<path d="M31.987 24.2583L31.9141 24.2948V26.0821V36.5142H34.8686V30.9699V28.1977C35.744 27.5047 36.7289 27.0305 37.6772 27.0305C39.2092 27.0305 39.4281 28.1612 39.4281 29.5473V36.5142H42.4191V28.6719L42.3826 28.2342C43.2216 27.5411 44.2064 27.0669 45.1548 27.0669C46.6868 27.0669 46.9421 28.1612 46.9421 29.5473V36.5142H49.8967V28.7084C49.8967 25.6079 48.0729 24.4407 45.9937 24.4407C44.6806 24.4407 43.1851 25.0608 41.7625 26.2645C41.1789 25.0972 40.0847 24.4407 38.6256 24.4407C37.1666 24.4407 35.8535 25.1337 34.6862 26.0456H34.5768C34.285 25.4255 33.8108 25.1702 33.519 24.9878L31.987 24.2583Z" fill="white"/>
<path d="M70.7262 24.5864C69.3766 24.5864 68.2094 25.3159 67.4799 26.1549L67.1516 24.8418H64.6348V36.587H67.5893V28.2705C68.5012 27.1397 69.4131 26.8115 70.1426 26.8115C71.2004 26.8115 71.9664 27.5045 71.9664 27.5045V24.8053C71.5652 24.6229 71.1639 24.5864 70.7262 24.5864Z" fill="white"/>
<path d="M75.2847 19.3325C74.2269 19.3325 73.4609 20.135 73.4609 21.1198C73.4609 22.1047 74.2269 22.8707 75.2847 22.8707C76.3425 22.8707 77.1085 22.0682 77.1085 21.1198C77.1085 20.0985 76.3061 19.3325 75.2847 19.3325ZM76.7802 24.8039H73.7892V36.5491H76.7802V24.8039Z" fill="white"/>
<path d="M102.825 24.0747H100.6H98.2653H98.2288H96.4415C93.2316 24.0747 91.6267 26.2268 91.6267 28.4153C91.6267 29.9838 92.3562 31.3334 93.5964 32.0629C92.6115 32.7195 92.1738 33.5949 92.1738 34.2879C92.1738 34.908 92.4656 35.4552 92.9398 35.747C91.7361 36.2576 90.8242 37.279 90.8242 38.5921C90.8242 40.6348 92.8304 42.0573 96.2956 42.0573C100.381 42.0573 102.497 40.3065 102.497 38.1909C102.497 33.7773 94.7636 35.747 94.7636 33.6314C94.7636 33.3761 94.8366 33.1207 95.0554 32.756C95.4567 32.8654 95.9673 32.9383 96.478 32.9383C99.3231 32.9383 101.366 31.224 101.366 28.5977C101.366 27.6858 101.074 26.8104 100.527 26.1174H100.855C101.803 26.0444 102.132 25.4973 102.278 25.2419L102.788 24.2206L102.825 24.1841V24.0747ZM96.5145 30.6768C95.2013 30.6768 94.4353 29.6555 94.4353 28.4883C94.4353 27.0657 95.3108 26.2997 96.478 26.2997C97.7911 26.2997 98.5936 27.3575 98.5936 28.5248C98.5936 29.9108 97.6817 30.6768 96.5145 30.6768ZM96.6968 39.9052C94.7271 39.9052 93.487 39.1757 93.487 38.0085C93.487 37.2425 94.0706 36.7318 94.4353 36.4765C96.0403 37.0966 99.6879 36.7318 99.6879 38.4462C99.6879 39.3216 98.4842 39.9052 96.6968 39.9052Z" fill="white"/>
<path d="M112.966 54.5314H112.383V54.3125H113.805V54.5314H113.222V56.2092H112.966V54.5314Z" fill="white"/>
<path d="M115.557 55.4055C115.557 55.1501 115.52 54.8218 115.52 54.603C115.447 54.8218 115.374 55.0772 115.265 55.3325L114.937 56.2444H114.791L114.499 55.3325C114.426 55.0772 114.317 54.8218 114.28 54.603C114.28 54.8218 114.244 55.1501 114.244 55.4419L114.207 56.2444H113.988L114.134 54.3477H114.462L114.791 55.2596C114.864 55.4784 114.937 55.6973 114.973 55.9161C115.01 55.7337 115.083 55.5149 115.156 55.2596L115.484 54.3477H115.812L115.921 56.2444H115.666L115.557 55.4055Z" fill="white"/>
</g>
<defs>
<clipPath id="clip0">
<rect width="134.669" height="65" fill="white"/>
</clipPath>
</defs>
</svg>
