
<svg width="125" height="60" viewBox="0 0 125 60" fill="none" xmlns="http://www.w3.org/2000/svg">
<g clip-path="url(#clip0)">
<path d="M5.82422 0.437479H6.56496L7.70974 3.97283C7.81075 4.3432 7.9791 4.81458 8.11378 5.28596H8.14745C8.28213 4.78091 8.41681 4.41054 8.58516 3.97283L9.46058 1.41391L9.12388 0.403809H9.83095L11.0094 3.97283C11.1441 4.3432 11.3124 4.81458 11.4134 5.25229H11.4471C11.5481 4.78091 11.6828 4.37687 11.8175 3.97283L12.9286 0.403809H13.6357L11.6828 6.32973H11.1441L10.1677 3.56879C9.9993 3.09741 9.89829 2.72704 9.76361 2.28933H9.72994C9.59526 2.72704 9.49425 3.03007 9.3259 3.56879L8.34947 6.32973H7.81075L5.82422 0.437479Z" fill="#4A4A49"/>
<path d="M14.275 4.3098C14.275 5.18523 14.78 5.85863 15.6891 5.85863C16.0931 5.85863 16.4298 5.72395 16.7329 5.58927L16.9349 6.06065C16.5645 6.29634 16.0595 6.43102 15.5881 6.43102C14.2413 6.43102 13.6016 5.42092 13.6016 4.17512C13.6016 2.89566 14.3086 1.98657 15.3524 1.98657C16.4298 1.98657 17.0359 2.82832 17.0359 4.17512V4.34347L14.275 4.3098ZM16.3288 3.80475C16.2952 3.16502 15.9921 2.52529 15.3524 2.52529C14.7127 2.52529 14.3086 3.09768 14.275 3.80475H16.3288Z" fill="#4A4A49"/>
<path d="M19.7305 2.25593C20.1682 2.08758 20.6732 1.98657 21.1109 1.98657C22.4577 1.98657 23.2658 2.79465 23.2658 4.17512C23.2658 5.5556 22.3567 6.39735 21.1446 6.39735C20.8753 6.39735 20.6059 6.33001 20.4039 6.229V8.41755H19.7305V2.25593ZM21.1109 5.85863C22.0537 5.85863 22.5924 5.18523 22.5924 4.17512C22.5924 3.06401 21.9527 2.55896 21.1109 2.55896C20.8416 2.55896 20.6396 2.59263 20.4039 2.65997V5.65661C20.6396 5.79129 20.8416 5.85863 21.1109 5.85863Z" fill="#4A4A49"/>
<path d="M24.1079 2.08758H24.6466L24.7139 2.6263C25.1853 2.12125 25.522 1.98657 25.8924 1.98657C26.0608 1.98657 26.2291 2.02024 26.3638 2.08758L26.1281 2.69364C26.0271 2.6263 25.9261 2.59263 25.7577 2.59263C25.4547 2.59263 25.1517 2.79465 24.7476 3.19869V6.29634H24.0742V2.08758H24.1079Z" fill="#4A4A49"/>
<path d="M27.2047 4.3098C27.2047 5.18523 27.7097 5.85863 28.6188 5.85863C29.0228 5.85863 29.3595 5.72395 29.6626 5.58927L29.8646 6.06065C29.4942 6.29634 28.9892 6.43102 28.5178 6.43102C27.171 6.43102 26.5312 5.42092 26.5312 4.17512C26.5312 2.89566 27.2383 1.98657 28.2821 1.98657C29.3595 1.98657 29.9656 2.82832 29.9656 4.17512V4.34347L27.2047 4.3098ZM29.2585 3.80475C29.2249 3.16502 28.9218 2.52529 28.2821 2.52529C27.6424 2.52529 27.2383 3.09768 27.2047 3.80475H29.2585Z" fill="#4A4A49"/>
<path d="M30.7734 2.25593C31.2111 2.08758 31.7162 1.98657 32.1539 1.98657C33.5007 1.98657 34.3088 2.79465 34.3088 4.17512C34.3088 5.5556 33.3997 6.39735 32.1876 6.39735C31.9182 6.39735 31.6489 6.33001 31.4468 6.229V8.41755H30.7734V2.25593ZM32.1539 5.85863C33.0967 5.85863 33.6354 5.18523 33.6354 4.17512C33.6354 3.06401 32.9957 2.55896 32.1539 2.55896C31.8845 2.55896 31.6825 2.59263 31.4468 2.65997V5.65661C31.6489 5.79129 31.8845 5.85863 32.1539 5.85863Z" fill="#4A4A49"/>
<path d="M37.5091 5.85861C37.1724 6.16164 36.7683 6.431 36.2296 6.431C35.4552 6.431 34.8828 5.92595 34.8828 5.11786C34.8828 4.54547 35.1522 4.1751 35.5899 3.97308C35.8592 3.8384 36.2296 3.77106 36.6337 3.77106L37.4417 3.73739V3.46803C37.4417 2.8283 37.0714 2.52527 36.5326 2.52527C36.0276 2.52527 35.6572 2.69362 35.3542 2.86197L35.1185 2.39059C35.6236 2.08756 36.1286 1.95288 36.6 1.95288C37.4754 1.95288 38.1151 2.39059 38.1151 3.40069V4.8485C38.1151 5.69025 38.1488 6.06063 38.1825 6.29632H37.6101L37.5091 5.85861ZM36.701 4.24244C36.3306 4.24244 36.0949 4.30978 35.8929 4.41079C35.6572 4.54547 35.5225 4.78116 35.5225 5.05052C35.5225 5.5219 35.8256 5.82493 36.297 5.82493C36.8357 5.82493 37.206 5.48823 37.4081 5.28621V4.20877L36.701 4.24244Z" fill="#4A4A49"/>
<path d="M39.1235 2.08758H39.6622L39.7296 2.6263C40.201 2.12125 40.5377 1.98657 40.908 1.98657C41.0764 1.98657 41.2447 2.02024 41.3794 2.08758L41.1437 2.69364C41.0427 2.6263 40.9417 2.59263 40.7733 2.59263C40.4703 2.59263 40.1673 2.79465 39.7632 3.19869V6.29634H39.0898V2.08758H39.1235Z" fill="#4A4A49"/>
<path d="M42.2203 4.3098C42.2203 5.18523 42.7253 5.85863 43.6344 5.85863C44.0385 5.85863 44.3751 5.72395 44.6782 5.58927L44.8802 6.06065C44.5098 6.29634 44.0048 6.43102 43.5334 6.43102C42.1866 6.43102 41.5469 5.42092 41.5469 4.17512C41.5469 2.89566 42.2539 1.98657 43.2977 1.98657C44.3752 1.98657 44.9812 2.82832 44.9812 4.17512V4.34347L42.2203 4.3098ZM44.2741 3.80475C44.2405 3.16502 43.9374 2.52529 43.2977 2.52529C42.658 2.52529 42.2539 3.09768 42.2203 3.80475H44.2741Z" fill="#4A4A49"/>
<path d="M47.7443 2.62626H47.1719V2.08754H47.7443V1.3468C47.7443 0.30303 48.384 0 48.9564 0C49.1584 0 49.4278 0.03367 49.5961 0.13468L49.4614 0.673401C49.3268 0.606061 49.1584 0.572391 48.9901 0.572391C48.5523 0.572391 48.384 0.841751 48.384 1.3468V2.12121H49.4614L49.2594 2.65993H48.384V6.36364H47.7443V2.62626Z" fill="#4A4A49"/>
<path d="M49.6641 4.20879C49.6641 2.963 50.4385 1.98657 51.6169 1.98657C52.7954 1.98657 53.5698 2.963 53.5698 4.20879C53.5698 5.45459 52.7954 6.43102 51.6169 6.43102C50.4048 6.39735 49.6641 5.42092 49.6641 4.20879ZM52.8627 4.20879C52.8627 3.23236 52.3577 2.55896 51.6169 2.55896C50.8425 2.55896 50.3375 3.23236 50.3375 4.20879C50.3375 5.18523 50.8425 5.85863 51.6169 5.85863C52.3577 5.85863 52.8627 5.15156 52.8627 4.20879Z" fill="#4A4A49"/>
<path d="M54.3774 2.08758H54.9161L54.9835 2.6263C55.4549 2.12125 55.7916 1.98657 56.1619 1.98657C56.3303 1.98657 56.4986 2.02024 56.6333 2.08758L56.3976 2.69364C56.2966 2.6263 56.1956 2.59263 56.0273 2.59263C55.7242 2.59263 55.4212 2.79465 55.0172 3.19869V6.29634H54.3438V2.08758H54.3774Z" fill="#4A4A49"/>
<path d="M5.65625 49.9663H9.83133L9.46096 51.1448H7.03672V53.1313H9.46096V54.3097H7.03672V56.3973H9.83133V57.5757H5.65625V49.9663Z" fill="#4A4A49"/>
<path d="M10.6719 52.1213H11.8503L11.985 52.7273C12.5574 52.2896 13.1635 51.9866 13.8369 51.9866C14.7123 51.9866 15.5877 52.4243 15.5877 53.9731V57.5758H14.2072V54.4108C14.2072 53.7374 14.0725 53.1987 13.3655 53.1987C12.9278 53.1987 12.4227 53.4344 12.0187 53.7711V57.5758H10.6719V52.1213Z" fill="#4A4A49"/>
<path d="M18.6194 59.0911C17.7103 59.0911 17.1379 58.7543 17.1379 58.2156C17.1379 57.8453 17.4073 57.6432 17.5756 57.5086C18.3164 57.8116 19.9999 57.6432 19.9999 58.4176C19.9999 58.788 19.4611 59.0911 18.6194 59.0911ZM18.5184 54.815C17.9123 54.815 17.5756 54.3436 17.5756 53.8049C17.5756 53.1651 17.9797 52.7948 18.5184 52.7948C19.1244 52.7948 19.4948 53.2661 19.4948 53.8049C19.4948 54.4446 19.0908 54.815 18.5184 54.815ZM21.4477 51.751H20.4376H19.3601H19.3265H18.4847C17.0032 51.751 16.2625 52.7611 16.2625 53.7375C16.2625 54.4783 16.5992 55.0843 17.1716 55.421C16.7339 55.724 16.5318 56.1281 16.5318 56.4311C16.5318 56.7341 16.6665 56.9698 16.9022 57.1045C16.3298 57.3402 15.9258 57.8116 15.9258 58.4176C15.9258 59.3604 16.8685 60.0001 18.451 60.0001C20.3366 60.0001 21.313 59.1921 21.313 58.2156C21.313 56.1954 17.744 57.1045 17.744 56.1281C17.744 56.0271 17.7776 55.8924 17.8786 55.724C18.047 55.7914 18.2827 55.8251 18.552 55.8251C19.8652 55.8251 20.8079 55.017 20.8079 53.8049C20.8079 53.3671 20.6733 52.9631 20.4376 52.6601H20.6059C21.0436 52.6264 21.1783 52.357 21.2793 52.256L21.515 51.7846V51.751H21.4477Z" fill="#4A4A49"/>
<path d="M24.8828 50.404C24.8828 49.9326 25.2532 49.5623 25.7246 49.5623C26.1959 49.5623 26.5663 49.9326 26.5663 50.404C26.5663 50.8417 26.1959 51.2121 25.7246 51.2121C25.2532 51.2458 24.8828 50.8754 24.8828 50.404ZM25.0512 52.1212H26.4316V57.5421H25.0512V52.1212Z" fill="#4A4A49"/>
<path d="M27.508 56.1277C27.9121 56.3971 28.4508 56.5654 28.9895 56.5654C29.5282 56.5654 29.9323 56.3971 29.9323 55.993C29.9323 55.084 27.3733 55.4206 27.3733 53.6025C27.3733 52.626 28.1478 51.9526 29.4272 51.9526C30.0333 51.9526 30.572 52.0536 31.0097 52.222V53.3668C30.5383 53.1648 30.0333 53.0301 29.4609 53.0301C28.9895 53.0301 28.6865 53.1648 28.6865 53.5351C28.6865 54.4105 31.2454 54.0738 31.2454 55.9594C31.2454 57.1378 30.2016 57.6429 29.0568 57.6429C28.2151 57.6429 27.508 57.3735 27.0703 57.1042L27.508 56.1277Z" fill="#4A4A49"/>
<path d="M31.8867 49.4275H33.2672V52.7272C33.7722 52.3231 34.3783 51.9864 35.0854 51.9864C35.9608 51.9864 36.8025 52.4241 36.8025 53.9729V57.5756H35.4221V54.4107C35.4221 53.7373 35.2874 53.1985 34.5803 53.1985C34.1089 53.1985 33.6376 53.4342 33.2335 53.7709V57.5756H31.8867V49.4275Z" fill="#4A4A49"/>
<path d="M23.7728 56.4311C23.5371 56.4311 23.3688 56.3301 23.3688 55.926V49.394H21.9883V56.2964C21.9883 57.1718 22.4597 57.6095 23.3688 57.6095C23.6044 57.6095 23.8738 57.5759 24.1432 57.5085L24.1095 56.3637C24.0085 56.4311 23.8401 56.4311 23.7728 56.4311Z" fill="#4A4A49"/>
<path d="M40.1328 53.771C40.1328 51.4814 41.7153 49.8989 43.9375 49.8989C46.1598 49.8989 47.7422 51.4814 47.7422 53.771C47.7422 55.8585 46.4291 57.3063 44.5773 57.5757C44.9813 58.0471 45.4864 58.2491 46.1261 58.2491C46.4291 58.2491 46.7321 58.1818 46.8668 58.1144L47.2035 59.1582C46.8332 59.3265 46.3954 59.3939 45.9577 59.3939C44.4763 59.3939 43.5335 58.5185 42.8264 57.4747C41.2103 57.0706 40.1328 55.6902 40.1328 53.771ZM46.2944 53.771C46.2944 52.0875 45.3853 51.0437 43.9375 51.0437C42.5234 51.0437 41.5806 52.0538 41.5806 53.771C41.5806 55.4882 42.5234 56.4646 43.9375 56.4646C45.318 56.4983 46.2944 55.4882 46.2944 53.771Z" fill="#4A4A49"/>
<path d="M53.2983 54.4782V57.6768H53.2646H53.2309L52.5238 57.3065C52.4228 57.2391 52.2882 57.1718 52.1535 57.0034L52.1198 56.9361H52.0188C51.6148 57.3065 51.0424 57.6095 50.3353 57.6095C49.7966 57.6095 49.0558 57.4075 48.7191 56.5321C48.5845 56.229 48.5508 55.8923 48.5508 55.3873V52.054H49.9313V55.2526C49.9313 55.5556 49.9649 55.7577 50.0323 55.926C50.1669 56.2627 50.4363 56.4311 50.8403 56.4311C51.2781 56.4311 51.7158 56.229 51.9515 55.9597V52.054H53.3319V56.128" fill="#4A4A49"/>
<path d="M56.1285 56.5994C55.6234 56.5994 55.3204 56.33 55.3204 55.8586C55.3204 55.5893 55.4214 55.3536 55.6571 55.2526C55.8254 55.1516 56.0948 55.0842 56.4652 55.0842L57.1722 55.0505V56.1953V56.229C56.9702 56.3637 56.5998 56.5994 56.1285 56.5994ZM56.3642 51.9866C55.5897 51.9866 54.9163 52.1549 54.2766 52.5253L54.7143 53.4007C55.1184 53.1987 55.5897 53.0303 56.1285 53.0303C56.7682 53.0303 57.1722 53.2997 57.1722 53.9394V54.1078L56.2295 54.1415C55.6908 54.1751 55.2194 54.2425 54.8153 54.4445C54.2429 54.7475 53.9062 55.1852 53.9062 55.926C53.9062 56.9697 54.6807 57.6768 55.7244 57.6768C56.3978 57.6768 56.9029 57.4074 57.2733 57.0371H57.3743C57.5089 57.2054 57.6436 57.2728 57.7446 57.3401L58.4517 57.7105H58.4854H58.519V54.5118V53.9731C58.5527 52.66 57.812 51.9866 56.3642 51.9866Z" fill="#4A4A49"/>
<path d="M78.3511 56.5994C77.8461 56.5994 77.543 56.33 77.543 55.8586C77.543 55.5893 77.6441 55.3536 77.8797 55.2526C78.0481 55.1516 78.3175 55.0842 78.6878 55.0842L79.3949 55.0505V56.1953V56.229C79.1592 56.3637 78.8225 56.5994 78.3511 56.5994ZM78.5868 51.9866C77.8461 51.9866 77.139 52.1549 76.4993 52.5253L76.937 53.4007C77.341 53.1987 77.8124 53.0303 78.3511 53.0303C78.9909 53.0303 79.3949 53.2997 79.3949 53.9394V54.1078L78.4521 54.1415C77.9134 54.1751 77.442 54.2425 77.038 54.4445C76.4656 54.7475 76.1289 55.1852 76.1289 55.926C76.1289 56.9697 76.9033 57.6768 77.9471 57.6768C78.6205 57.6768 79.1255 57.4074 79.4959 57.0371H79.5969C79.7316 57.2054 79.8663 57.2728 79.9673 57.3401L80.6744 57.7105H80.708H80.7417V53.9731C80.7754 52.66 80.0346 51.9866 78.5868 51.9866Z" fill="#4A4A49"/>
<path d="M61.179 56.4311C60.9434 56.4311 60.775 56.3301 60.775 55.926V49.394H59.3945V56.2964C59.3945 57.1718 59.8659 57.6095 60.775 57.6095C61.0107 57.6095 61.2464 57.5759 61.5157 57.5085V56.3637C61.4147 56.4311 61.2464 56.4311 61.179 56.4311Z" fill="#4A4A49"/>
<path d="M62.2227 50.404C62.2227 49.9326 62.593 49.5623 63.0644 49.5623C63.5358 49.5623 63.9062 49.9326 63.9062 50.404C63.9062 50.8417 63.5358 51.2121 63.0644 51.2121C62.5594 51.2458 62.2227 50.8754 62.2227 50.404ZM62.3573 52.1212H63.7378V57.5421H62.3573V52.1212Z" fill="#4A4A49"/>
<path d="M65.355 53.1651H64.5469V52.0876H65.355V51.3469C65.355 50.0674 66.0957 49.394 67.2068 49.394C67.5772 49.394 67.9812 49.4614 68.3516 49.6297L68.0822 50.7072C67.8465 50.6398 67.6108 50.5725 67.4088 50.5725C66.9374 50.5725 66.7354 50.8419 66.7354 51.3132V52.0876H68.1496L67.8129 53.1651H66.7354V57.5422H65.355V53.1651ZM68.7556 50.4041C68.7556 49.9328 69.126 49.5624 69.5974 49.5624C70.0687 49.5624 70.4391 49.9328 70.4391 50.4041C70.4391 50.8419 70.0687 51.2122 69.5974 51.2122C69.126 51.2459 68.7556 50.8755 68.7556 50.4041ZM68.924 52.1213H70.3044V57.5422H68.924V52.1213Z" fill="#4A4A49"/>
<path d="M82.0858 56.1953V53.165H81.1094V52.0876H82.0858V50.8418L83.4663 50.4377V52.0876H85.1161L84.7794 53.165H83.4663V55.8586C83.4663 56.3637 83.6346 56.532 84.005 56.532C84.3417 56.532 84.6111 56.3973 84.8468 56.2627L85.2508 57.2054C84.8468 57.4748 84.207 57.6431 83.6683 57.6431C82.6919 57.6431 82.0858 57.1044 82.0858 56.1953Z" fill="#4A4A49"/>
<path d="M85.8906 50.404C85.8906 49.9326 86.261 49.5623 86.7324 49.5623C87.2038 49.5623 87.5741 49.9326 87.5741 50.404C87.5741 50.8417 87.2038 51.2121 86.7324 51.2121C86.261 51.2458 85.8906 50.8754 85.8906 50.404ZM86.059 52.1212H87.4394V57.5421H86.059V52.1212Z" fill="#4A4A49"/>
<path d="M88.1836 54.8149C88.1836 53.1987 89.261 51.9866 90.8772 51.9866C92.4934 51.9866 93.6045 53.1987 93.6045 54.8149C93.6045 56.431 92.4934 57.6768 90.8772 57.6768C89.261 57.6431 88.1836 56.431 88.1836 54.8149ZM92.1903 54.8149C92.1903 53.8048 91.7526 53.0977 90.8772 53.0977C90.0018 53.0977 89.5641 53.8384 89.5641 54.8149C89.5641 55.825 90.0018 56.5657 90.8772 56.5657C91.7526 56.5657 92.1903 55.825 92.1903 54.8149Z" fill="#4A4A49"/>
<path d="M94.3423 52.1213H95.5207L95.6554 52.7273C96.2278 52.2896 96.8338 51.9866 97.5072 51.9866C98.3827 51.9866 99.2581 52.4243 99.2581 53.9731V57.5758H97.8776V54.4108C97.8776 53.7374 97.7429 53.1987 97.0359 53.1987C96.5982 53.1987 96.0931 53.4344 95.6891 53.7711V57.5758H94.3086V52.1213H94.3423Z" fill="#4A4A49"/>
<path d="M100.403 56.128C100.807 56.3973 101.345 56.5657 101.884 56.5657C102.423 56.5657 102.827 56.3973 102.827 55.9933C102.827 55.0842 100.268 55.4209 100.268 53.6027C100.268 52.6263 101.042 51.9529 102.322 51.9529C102.928 51.9529 103.467 52.0539 103.904 52.2222V53.367C103.433 53.165 102.928 53.0303 102.355 53.0303C101.884 53.0303 101.581 53.165 101.581 53.5354C101.581 54.4108 104.14 54.0741 104.14 55.9596C104.14 57.1381 103.096 57.6431 101.951 57.6431C101.11 57.6431 100.403 57.4074 99.9648 57.1044L100.403 56.128Z" fill="#4A4A49"/>
<path d="M75.4206 56.1278L75.3196 56.1951C74.9492 56.3971 74.5452 56.5655 74.0738 56.5655C73.1311 56.5655 72.525 55.9594 72.525 54.8483C72.525 53.8382 73.1311 53.0975 74.1412 53.0975C74.6799 53.0975 75.0839 53.2321 75.4543 53.5352V52.3904C75.1513 52.222 74.6799 52.02 74.0065 52.02C72.3903 52.02 71.1445 53.2321 71.1445 54.9156C71.1445 56.4981 72.121 57.7103 73.8718 57.7103C74.6125 57.7103 75.2859 57.4746 75.7236 57.1715C75.7236 57.1379 75.5216 56.8348 75.4206 56.1278Z" fill="#4A4A49"/>
<path d="M124.31 27.7104L103.973 13.064H0V42.3569H103.973L124.31 27.7104Z" fill="#E84A34"/>
<path d="M13.5032 18.4849C8.65475 18.4849 5.52344 21.9865 5.52344 26.3636C5.52344 30.8081 8.21704 33.9731 13.1665 33.9731C14.648 33.9731 16.1968 33.7037 17.8467 32.8283C17.4426 32.2222 17.2069 31.4478 17.2069 30.5724C16.1295 31.1785 14.9847 31.6162 13.5032 31.6162C10.4056 31.6162 8.4864 29.4276 8.4864 26.2626C8.4864 23.2997 10.2372 20.7744 13.6042 20.7744C15.0857 20.7744 16.3315 21.1448 17.51 21.7509V19.1919C16.5335 18.8216 15.1531 18.4849 13.5032 18.4849Z" fill="white"/>
<path d="M50.7781 17.4075H48.0508V33.1314C48.9599 33.6028 50.2057 33.8721 51.6198 33.8721C55.3235 33.8721 58.1181 31.6836 58.1181 27.8452C58.1181 24.4108 55.7949 22.4916 52.8993 22.4916C52.0575 22.4916 51.4178 22.6263 50.7781 22.8283V17.4075ZM52.0238 31.5826C51.6198 31.5826 51.1821 31.5489 50.7781 31.4142V25.1179C51.1148 24.9832 51.6198 24.7812 52.4279 24.7812C54.2124 24.7812 55.2898 26.128 55.2898 28.0135C55.2562 30.1347 54.0104 31.5826 52.0238 31.5826Z" fill="white"/>
<path d="M82.7958 17.5085H80.0348V22.7611C79.5971 22.6601 78.9911 22.6264 78.5534 22.6264C75.119 22.6264 72.5938 24.9833 72.5938 28.4176C72.5938 31.9867 75.22 33.9732 78.7554 33.9732C80.1022 33.9732 81.6847 33.7038 82.7621 33.1651V17.5085H82.7958ZM78.7554 31.7173C76.7688 31.7173 75.422 30.5052 75.422 28.384C75.422 26.1617 76.8362 24.8823 78.7217 24.8823C79.2604 24.8823 79.6308 24.9496 80.0348 25.0506V31.5153C79.6645 31.6836 79.1257 31.7173 78.7554 31.7173Z" fill="white"/>
<path d="M99.9017 22.6262C96.804 22.6262 95.0195 25.0841 95.0195 28.3501C95.0195 31.2794 96.6357 34.0067 100.575 34.0067C101.922 34.0067 103.269 33.7037 104.413 32.9966L103.572 31.1111C102.797 31.5488 101.922 31.8518 100.844 31.8518C99.0263 31.8518 97.8478 30.7744 97.7805 29.0909H104.717V28.4511C104.717 24.8148 102.966 22.6262 99.9017 22.6262ZM97.7468 27.1717C97.7805 25.8585 98.4875 24.7138 99.868 24.7138C101.316 24.7138 101.922 25.9259 101.956 27.1717H97.7468Z" fill="white"/>
<path d="M23.1009 22.6262C21.5858 22.6262 20.1716 22.9966 18.8922 23.7037L19.8012 25.4545C20.5757 25.0505 21.5521 24.7138 22.6295 24.7138C23.8753 24.7138 24.7171 25.2525 24.7171 26.5319V26.8686L22.8652 26.936C21.7541 26.9697 20.8113 27.1717 20.0706 27.542C18.9595 28.1144 18.2188 29.0235 18.2188 30.505C18.2188 32.5925 19.7676 33.973 21.8214 33.973C23.1682 33.973 24.1447 33.4343 24.9528 32.7272H25.1885C25.4578 33.0303 25.7272 33.1986 25.9292 33.2996L27.377 34.0067L27.4443 34.0404L27.478 34.0067V26.5656C27.4443 23.9394 26.0302 22.6262 23.1009 22.6262ZM22.6295 31.8181C21.6531 31.8181 21.0134 31.2794 21.0134 30.3367C21.0134 29.7979 21.2154 29.3602 21.6868 29.0909C22.0571 28.8888 22.5622 28.7542 23.2693 28.7542L24.6834 28.7205V31.0101V31.1111C24.2794 31.3804 23.5723 31.8181 22.6295 31.8181Z" fill="white"/>
<path d="M29.5283 22.3909L29.4609 22.4245V24.0744V33.704H32.1882V28.5862V26.0272C32.9963 25.3875 33.9054 24.9498 34.7808 24.9498C36.1949 24.9498 36.397 25.9936 36.397 27.273V33.704H39.1579V26.4649L39.1242 26.0609C39.8986 25.4212 40.8077 24.9835 41.6832 24.9835C43.0973 24.9835 43.333 25.9936 43.333 27.273V33.704H46.0603V26.4986C46.0603 23.6367 44.3768 22.5592 42.4576 22.5592C41.2454 22.5592 39.865 23.1316 38.5518 24.2427C38.0131 23.1653 37.003 22.5592 35.6562 22.5592C34.3094 22.5592 33.0973 23.199 32.0199 24.0407H31.9189C31.6495 23.4683 31.2118 23.2326 30.9424 23.0643L29.5283 22.3909Z" fill="white"/>
<path d="M65.287 22.6936C64.0412 22.6936 62.9637 23.367 62.2903 24.1414L61.9873 22.9293H59.6641V33.7711H62.3913V26.0943C63.2331 25.0505 64.0748 24.7475 64.7482 24.7475C65.7247 24.7475 66.4317 25.3872 66.4317 25.3872V22.8956C66.0614 22.7273 65.691 22.6936 65.287 22.6936Z" fill="white"/>
<path d="M69.496 17.8452C68.5196 17.8452 67.8125 18.586 67.8125 19.495C67.8125 20.4041 68.5196 21.1112 69.496 21.1112C70.4724 21.1112 71.1795 20.3705 71.1795 19.495C71.1795 18.5523 70.4388 17.8452 69.496 17.8452ZM70.8765 22.8957H68.1155V33.7375H70.8765V22.8957Z" fill="white"/>
<path d="M94.9173 22.2224H92.8634H90.7085H90.6749H89.025C86.0621 22.2224 84.5806 24.2089 84.5806 26.2291C84.5806 27.677 85.254 28.9227 86.3988 29.5961C85.4897 30.2022 85.0856 31.0103 85.0856 31.65C85.0856 32.2224 85.355 32.7275 85.7927 32.9968C84.6816 33.4682 83.8398 34.411 83.8398 35.6231C83.8398 37.5086 85.6917 38.8217 88.8904 38.8217C92.6614 38.8217 94.6143 37.2056 94.6143 35.2527C94.6143 31.1786 87.4762 32.9968 87.4762 31.044C87.4762 30.8083 87.5436 30.5726 87.7456 30.2359C88.1159 30.3369 88.5873 30.4042 89.0587 30.4042C91.685 30.4042 93.5705 28.8217 93.5705 26.3975C93.5705 25.5557 93.3011 24.7477 92.7961 24.1079H93.0991C93.9745 24.0406 94.2776 23.5355 94.4122 23.2999L94.8836 22.3571L94.9173 22.3234V22.2224ZM89.0924 28.3167C87.8803 28.3167 87.1732 27.3739 87.1732 26.2965C87.1732 24.9834 87.9813 24.2763 89.0587 24.2763C90.2708 24.2763 91.0116 25.2527 91.0116 26.3302C91.0116 27.6096 90.1698 28.3167 89.0924 28.3167ZM89.2607 36.8352C87.4425 36.8352 86.2978 36.1618 86.2978 35.0844C86.2978 34.3773 86.8365 33.9059 87.1732 33.6702C88.6547 34.2426 92.0217 33.9059 92.0217 35.4884C92.0217 36.2965 90.9106 36.8352 89.2607 36.8352Z" fill="white"/>
<path d="M104.277 50.3365H103.738V50.1345H105.051V50.3365H104.513V51.8854H104.277V50.3365Z" fill="#4A4A49"/>
<path d="M106.667 51.1446C106.667 50.909 106.633 50.6059 106.633 50.4039C106.566 50.6059 106.498 50.8416 106.397 51.0773L106.094 51.9191H105.959L105.69 51.0773C105.623 50.8416 105.522 50.6059 105.488 50.4039C105.488 50.6059 105.454 50.909 105.454 51.1783L105.421 51.9191H105.219L105.353 50.1682H105.656L105.959 51.01C106.027 51.212 106.094 51.414 106.128 51.616C106.162 51.4477 106.229 51.2457 106.296 51.01L106.599 50.1682H106.902L107.003 51.9191H106.768L106.667 51.1446Z" fill="#4A4A49"/>
</g>
<defs>
<clipPath id="clip0">
<rect width="124.31" height="60" fill="white"/>
</clipPath>
</defs>
</svg>
